# xmcd
#
# Track frame offsets: 
#        150
#        15697
#        30813
#        46379
#        62913
#        81199
#        96618
#        112778
#        129935
#        146477
#        162770
#        178191
#        192607
#
# Disc length: 2831 seconds
#
# Revision: 0
# Processed by: cddbd v1.4PL0 Copyright (c) Steve Scherf et al.
# Submitted via: ExactAudioCopy v0.90b4
#
DISCID=aa0b0d0d
DTITLE=Holly Valance - Footprints
DYEAR=2002
DGENRE=R&B
TTITLE0=Kiss Kiss 
TTITLE1=Tuck Your Shirt In 
TTITLE2=Down boy 
TTITLE3=City Ain't Big Enough 
TTITLE4=Cocktails And Parties
TTITLE5=Whoop
TTITLE6=Hush Now 
TTITLE7=All In Mind 
TTITLE8=Harder They Come 
TTITLE9=Help Me Help You 
TTITLE10=Naughty Girl 
TTITLE11=Connect 
TTITLE12=Send My Best
EXTD=
EXTT0=
EXTT1=
EXTT2=
EXTT3=
EXTT4=
EXTT5=
EXTT6=
EXTT7=
EXTT8=
EXTT9=
EXTT10=
EXTT11=
EXTT12=
PLAYORDER=
